<?xml version="1.0" encoding="utf-8"?><svg viewBox="0 0 576 512" xmlns="http://www.w3.org/2000/svg" xmlns:xlink="http://www.w3.org/1999/xlink"><style>:root>svg{display:none}:root>svg:target{display:block}</style><svg viewBox="0 0 512 512" id="bomb-solid" xmlns="http://www.w3.org/2000/svg"><!--! Font Awesome Pro 6.2.1 by @fontawesome - https://fontawesome.com License - https://fontawesome.com/license (Commercial License) Copyright 2022 Fonticons, Inc.--><path d="M459.1 52.4 442.6 6.5c-1.9-3.9-6.1-6.5-10.5-6.5s-8.5 2.6-10.4 6.5l-16.5 45.9-46 16.8c-4.3 1.6-7.3 5.9-7.2 10.4 0 4.5 3 8.7 7.2 10.2l45.7 16.8 16.8 45.8c1.5 4.4 5.8 7.5 10.4 7.5s8.9-3.1 10.4-7.5l16.5-45.8 45.7-16.8c4.2-1.5 7.2-5.7 7.2-10.2 0-4.6-3-8.9-7.2-10.4l-45.6-16.8zm-132.4 53c-12.5-12.5-32.8-12.5-45.3 0l-2.9 2.9c-22-8-45.8-12.3-70.5-12.3C93.1 96 0 189.1 0 304s93.1 208 208 208 208-93.1 208-208c0-24.7-4.3-48.5-12.2-70.5l2.9-2.9c12.5-12.5 12.5-32.8 0-45.3l-80-80zM200 192c-57.4 0-104 46.6-104 104v8c0 8.8-7.2 16-16 16s-16-7.2-16-16v-8c0-75.1 60.9-136 136-136h8c8.8 0 16 7.2 16 16s-7.2 16-16 16h-8z"/></svg><svg viewBox="0 0 512 512" id="comment-regular" xmlns="http://www.w3.org/2000/svg"><!--! Font Awesome Pro 6.2.1 by @fontawesome - https://fontawesome.com License - https://fontawesome.com/license (Commercial License) Copyright 2022 Fonticons, Inc.--><path d="M256 32C114.6 32 .027 125.1.027 240c0 47.63 19.91 91.25 52.91 126.2-14.88 39.5-45.87 72.88-46.37 73.25-6.625 7-8.375 17.25-4.625 26C5.818 474.2 14.38 480 24 480c61.5 0 109.1-25.75 139.1-46.25 28 9.05 60.2 14.25 92.9 14.25 141.4 0 255.1-93.13 255.1-208S397.4 32 256 32zm.1 368c-26.75 0-53.12-4.125-78.38-12.12l-22.75-7.125-19.5 13.75c-14.25 10.12-33.88 21.38-57.5 29 7.375-12.12 14.37-25.75 19.88-40.25l10.62-28-20.62-21.87C69.82 314.1 48.07 282.2 48.07 240c0-88.25 93.25-160 208-160s208 71.75 208 160S370.8 400 256.1 400z"/></svg><svg viewBox="0 0 576 512" id="star-solid" xmlns="http://www.w3.org/2000/svg"><!--! Font Awesome Pro 6.2.1 by @fontawesome - https://fontawesome.com License - https://fontawesome.com/license (Commercial License) Copyright 2022 Fonticons, Inc.--><path d="M316.9 18c-5.3-11-16.5-18-28.8-18s-23.4 7-28.8 18L195 150.3 51.4 171.5c-12 1.8-22 10.2-25.7 21.7s-.7 24.2 7.9 32.7L137.8 329l-24.6 145.7c-2 12 3 24.2 12.9 31.3s23 8 33.8 2.3l128.3-68.5 128.3 68.5c10.8 5.7 23.9 4.9 33.8-2.3s14.9-19.3 12.9-31.3L438.5 329l104.2-103.1c8.6-8.5 11.7-21.2 7.9-32.7s-13.7-19.9-25.7-21.7l-143.7-21.2L316.9 18z"/></svg></svg>